<?xml version="1.0" encoding="UTF-8"?><svg version="1.1" xmlns="http://www.w3.org/2000/svg" xmlns:xlink="http://www.w3.org/1999/xlink" viewBox="0 0 1600 1200" width="1600" height="1200" x="0px" y="0px">
    
    
    <!-- ITEM 0 -->
    <g>
        <defs>
            <clipPath id="clip-path-id-viewbox-item-0">
                <rect x="0.0" y="0.0" width="573.9" height="367.1"/>
            </clipPath>
        </defs>
        <g transform="translate(566.0 178.0) rotate(0.0 83.0 53.0) scale(0.2892489980832898 0.28874965949332604)">
            <g clip-path="url(#clip-path-id-viewbox-item-0)" transform="translate(-0.0 -0.0)">
                
  
  <g>
    <rect width="426" height="367.1" style="         fill: #ffb578;       "/>
    <rect x="75" width="77.7" height="103" style="         fill: #ffcba1;       "/>
    <path d="M234,367.1H102.2V288.5A131.789,131.789,0,0,1,234,156.7h0V367.1Z" style="         fill: #ffcba1;       "/>
    <rect x="229.2" width="344.8" height="367.1" style="         fill: #ff953f;       "/>
    <polygon points="574 0 229.2 367.1 573.9 367.1 574 0" style="         fill: #7d5252;       "/>
    <path d="M573.9,367.1h-139V192.4h139ZM445.4,356.6h118V202.9h-118Z" style="         fill: #ad8172;       "/>
    <path d="M477,215.6v53.3a27.506,27.506,0,0,0,27.4,27.4h0a27.506,27.506,0,0,0,27.4-27.4V215.6Z" style="         fill: #ad8172;       "/>
    <rect x="499.1" y="256" width="10.5" height="83.1" style="         fill: #ad8172;       "/>
    <rect x="477" y="333.8" width="54.8" height="10.5" style="         fill: #ad8172;       "/>
  </g>

            </g>
        </g>
    </g>
    
    <!-- ITEM 1 -->
    <g>
        <defs>
            <clipPath id="clip-path-id-viewbox-item-1">
                <rect x="0.0" y="0.0" width="1919.6" height="143.9"/>
            </clipPath>
        </defs>
        <g transform="translate(141.0 1064.0) rotate(0.0 627.5 46.5) scale(0.6537820379245677 0.6462821403752605)">
            <g clip-path="url(#clip-path-id-viewbox-item-1)" transform="translate(-0.0 -0.0)">
                
  
  <g>
    <rect width="1919.6" height="143.9" style="         fill: #dcdde2;       "/>
    <path d="M30.4,31.4v75a6.445,6.445,0,0,0,6.4,6.4,7.42,7.42,0,0,0,3.5-1l116-74.9a6.321,6.321,0,0,0,1.9-8.8,6.468,6.468,0,0,0-5.4-2.9H36.8A6.213,6.213,0,0,0,30.4,31.4Z" style="         fill: #eeeff5;       "/>
    <path d="M74.1,106.2a6.36,6.36,0,0,0,3.3,11.9H261.2a6.38,6.38,0,0,0,6.4-6.4,6.294,6.294,0,0,0-.9-3.3l-46.5-78a6.356,6.356,0,0,0-8.6-2.3Z" style="         fill: #eeeff5;       "/>
    <path d="M246.3,34.7l22.1,38.2a6.384,6.384,0,0,0,8.7,2.3,4.44,4.44,0,0,0,1.1-.8L320,36.2a6.345,6.345,0,0,0,.4-9,6.438,6.438,0,0,0-4.7-2.1H251.8a6.38,6.38,0,0,0-6.4,6.4A6.2,6.2,0,0,0,246.3,34.7Z" style="         fill: #eeeff5;       "/>
    <path d="M283,99l8.3,15.7a6.37,6.37,0,0,0,5.6,3.4H429.3a6.38,6.38,0,0,0,6.4-6.4,6.874,6.874,0,0,0-.5-2.4L403,29.1a6.413,6.413,0,0,0-5.9-4H355.3a6.039,6.039,0,0,0-4.4,1.8L284.2,91.4A6.538,6.538,0,0,0,283,99Z" style="         fill: #eeeff5;       "/>
    <path d="M429.7,33.5l10.5,30.6a6.452,6.452,0,0,0,8.1,4,3.379,3.379,0,0,0,1.2-.6l50.9-30.6a6.353,6.353,0,0,0,2.2-8.7,6.464,6.464,0,0,0-5.5-3.1H435.7a6.38,6.38,0,0,0-6.4,6.4A4.477,4.477,0,0,0,429.7,33.5Z" style="         fill: #eeeff5;       "/>
    <path d="M451.2,91.1l6.8,20.6a6.4,6.4,0,0,0,8,4.1c.1,0,.2-.1.3-.1l58.4-22.3a6.645,6.645,0,0,0,3.8-3.9L545,41.7a6.332,6.332,0,0,0-9.3-7.5L454,83.7A6.289,6.289,0,0,0,451.2,91.1Z" style="         fill: #eeeff5;       "/>
    <path d="M529,105.7l10.3-3.7a6.767,6.767,0,0,1,5.4.5l6.2,3.7a6.349,6.349,0,0,1-3.3,11.8H531.1C523.9,118.1,522.2,108.1,529,105.7Z" style="         fill: #eeeff5;       "/>
    <path d="M555.5,94.5l21.3,12.4a6.413,6.413,0,0,0,8-1.3L645,35.7a6.347,6.347,0,0,0-4.9-10.5H581.7a6.311,6.311,0,0,0-5.9,4l-23,57.5A6.448,6.448,0,0,0,555.5,94.5Z" style="         fill: #eeeff5;       "/>
    <path d="M614.4,118.1H797.7a6.38,6.38,0,0,0,6.4-6.4,5.381,5.381,0,0,0-.4-2.2L774.4,29.3a6.382,6.382,0,0,0-6-4.2H676.6a6.159,6.159,0,0,0-5,2.5l-62.1,80.2a6.257,6.257,0,0,0,1.1,8.9A5.943,5.943,0,0,0,614.4,118.1Z" style="         fill: #eeeff5;       "/>
    <path d="M792.6,33.5,804.4,68a6.452,6.452,0,0,0,8.1,4,5.244,5.244,0,0,0,1.8-1l45-34.5a6.35,6.35,0,0,0-3.9-11.4H798.7a6.38,6.38,0,0,0-6.4,6.4A6.448,6.448,0,0,0,792.6,33.5Z" style="         fill: #eeeff5;       "/>
    <path d="M814.1,92.3l6.7,21.1a6.753,6.753,0,0,0,6.4,4.7h78.1a6.7,6.7,0,0,0,6.7-6.7,4.869,4.869,0,0,0-.1-1.2l-8.2-46.7a6.706,6.706,0,0,0-5.4-5.4l-34.1-6a6.563,6.563,0,0,0-5.1,1.2L816.6,84.9A6.7,6.7,0,0,0,814.1,92.3Z" style="         fill: #eeeff5;       "/>
    <path d="M892.4,42.7l19,3.2a6.973,6.973,0,0,0,5.4-1.4L926,37a6.582,6.582,0,0,0,.9-9.4,6.685,6.685,0,0,0-5.2-2.5H898.3a6.81,6.81,0,0,0-4.5,1.7L889,31.1a6.652,6.652,0,0,0-.5,9.4A6.457,6.457,0,0,0,892.4,42.7Z" style="         fill: #eeeff5;       "/>
    <path d="M918,70.3,928.2,113a6.643,6.643,0,0,0,6.5,5.1h21.6a6.7,6.7,0,0,0,6.7-6.7,6.583,6.583,0,0,0-.7-3L942,67.2a6.748,6.748,0,0,0-5.2-3.7L925.3,62a6.665,6.665,0,0,0-7.5,5.8A10.145,10.145,0,0,0,918,70.3Z" style="         fill: #eeeff5;       "/>
    <path d="M942.4,51.2l5,.9a6.725,6.725,0,0,1,4.5,3.2l11.3,19a6.683,6.683,0,0,0,9.2,2.3,11.511,11.511,0,0,0,1.7-1.4l33.2-39.1a6.7,6.7,0,0,0-5.1-11H958.5a6.989,6.989,0,0,0-4.4,1.6L939.3,39.5a6.657,6.657,0,0,0-.7,9.4A5.858,5.858,0,0,0,942.4,51.2Z" style="         fill: #eeeff5;       "/>
    <path d="M973.5,96.5l7.1,17.4a6.75,6.75,0,0,0,6.2,4.2h77.7a6.7,6.7,0,0,0,6.7-6.7,5.918,5.918,0,0,0-.7-2.9L1036.4,39a6.681,6.681,0,0,0-8.9-3.1,8.016,8.016,0,0,0-1.9,1.3L974.9,89.4A6.485,6.485,0,0,0,973.5,96.5Z" style="         fill: #eeeff5;       "/>
    <path d="M1052.6,34.8l19.3,40.6a6.722,6.722,0,0,0,8.9,3.2,2.177,2.177,0,0,0,.8-.5l59.6-39.7a6.7,6.7,0,0,0-3.6-12.3l-78.9-.9a6.766,6.766,0,0,0-6.8,6.6A9.425,9.425,0,0,0,1052.6,34.8Z" style="         fill: #eeeff5;       "/>
    <path d="M1084.1,99.6l6.4,14.5a6.8,6.8,0,0,0,6.1,4h85.2a6.7,6.7,0,0,0,6.7-6.7v-.7l-7.1-69.4a6.7,6.7,0,0,0-7.3-6,6.423,6.423,0,0,0-3,1.1l-84.5,55A6.614,6.614,0,0,0,1084.1,99.6Z" style="         fill: #eeeff5;       "/>
    <path d="M1197.6,32.6l5,42.8a6.66,6.66,0,0,0,7.4,5.9.6.6,0,0,0,.4-.1l88.2-15.8a6.661,6.661,0,0,0,5.5-6.6v-27a6.7,6.7,0,0,0-6.7-6.7h-93.1a6.7,6.7,0,0,0-6.7,6.7Z" style="         fill: #eeeff5;       "/>
    <path d="M1206.8,101.7l1.4,10.5a6.681,6.681,0,0,0,6.6,5.8h61.3a6.7,6.7,0,0,0,6.7-6.7v-.6L1281,89.5a6.731,6.731,0,0,0-7.3-6.1,1.268,1.268,0,0,0-.6.1l-60.8,10.6A7.075,7.075,0,0,0,1206.8,101.7Z" style="         fill: #eeeff5;       "/>
    <path d="M1297.4,79.1l19.9-4.1a6.835,6.835,0,0,1,6.6,2.3l24.1,29.8a6.672,6.672,0,0,1-1,9.4,6.554,6.554,0,0,1-4.2,1.5h-40.4a6.681,6.681,0,0,1-6.6-5.8l-3.6-25.7A6.555,6.555,0,0,1,1297.4,79.1Z" style="         fill: #eeeff5;       "/>
    <path d="M1320.1,53.7l1.1-22.2a6.708,6.708,0,0,1,6.7-6.4h75.3a6.741,6.741,0,0,1,6.6,5.5l14.3,79.6a6.757,6.757,0,0,1-5.4,7.8,4.869,4.869,0,0,1-1.2.1h-41a6.766,6.766,0,0,1-5.1-2.3l-49.6-57.3A7.249,7.249,0,0,1,1320.1,53.7Z" style="         fill: #eeeff5;       "/>
    <path d="M1428.8,32.9l6.9,39.6a6.606,6.606,0,0,0,7.7,5.4,8.544,8.544,0,0,0,2.4-.9l62.7-39.6a6.668,6.668,0,0,0,2.1-9.2,6.806,6.806,0,0,0-5.7-3.1h-69.6a6.7,6.7,0,0,0-6.7,6.7C1428.7,32.2,1428.7,32.6,1428.8,32.9Z" style="         fill: #eeeff5;       "/>
    <path d="M1441.1,97.8l1.9,14.5a6.681,6.681,0,0,0,6.6,5.8h106.8a6.7,6.7,0,0,0,6.7-6.7,6.2,6.2,0,0,0-1-3.5l-36.2-58.5a6.743,6.743,0,0,0-9.2-2.2l-72.5,44A6.562,6.562,0,0,0,1441.1,97.8Z" style="         fill: #eeeff5;       "/>
    <path d="M1540.2,33.8l11.5-7.6a6.959,6.959,0,0,1,3.7-1.1h53a6.7,6.7,0,0,1,6.7,6.7,6.555,6.555,0,0,1-2.4,5.1l-44.6,37.5a6.666,6.666,0,0,1-9.4-.8c-.2-.2-.3-.4-.5-.6l-19.9-29.9a6.753,6.753,0,0,1,1.9-9.3Z" style="         fill: #eeeff5;       "/>
    <path d="M1571.8,93.2l14.3,21.9a6.542,6.542,0,0,0,5.6,3H1650a6.7,6.7,0,0,0,6.7-6.7,6.959,6.959,0,0,0-1.1-3.7l-34.3-51.9a6.735,6.735,0,0,0-9.3-1.9c-.2.1-.3.2-.5.3l-38.3,30.1A6.671,6.671,0,0,0,1571.8,93.2Z" style="         fill: #eeeff5;       "/>
    <path d="M1646.9,26.6l-13.1,10.9a6.668,6.668,0,0,0-1.3,8.9l23,34a6.641,6.641,0,0,0,9.3,1.8,6.447,6.447,0,0,0,2.4-3l18.7-44.9a6.805,6.805,0,0,0-3.6-8.8,7.512,7.512,0,0,0-2.6-.5h-28.6A7.281,7.281,0,0,0,1646.9,26.6Z" style="         fill: #eeeff5;       "/>
    <path d="M1672.6,106.9l3.9,7.5a6.9,6.9,0,0,0,6.1,3.6l49.6-1a6.7,6.7,0,0,0,6.5-6.9,6.438,6.438,0,0,0-2.1-4.7l-39.2-36.2a6.771,6.771,0,0,0-9.5.4,5.715,5.715,0,0,0-1.1,1.6l-14.2,29.7A6.375,6.375,0,0,0,1672.6,106.9Z" style="         fill: #eeeff5;       "/>
    <path d="M1704.4,29.3l-7.9,20a6.836,6.836,0,0,0,1.8,7.5l25.5,22.4a6.806,6.806,0,0,0,7.8.8l73.5-42.4a6.693,6.693,0,0,0-3.3-12.5h-91.1A6.784,6.784,0,0,0,1704.4,29.3Z" style="         fill: #eeeff5;       "/>
    <path d="M1851.4,31.7l37.1,76.6a6.681,6.681,0,0,1-3.1,8.9,6.3,6.3,0,0,1-3,.7l-114.1-2a6.66,6.66,0,0,1-4.4-1.8l-19-17.5a6.763,6.763,0,0,1-.4-9.5,5.665,5.665,0,0,1,1.5-1.2l96-57.2a6.771,6.771,0,0,1,9.2,2.3A2.544,2.544,0,0,1,1851.4,31.7Z" style="         fill: #eeeff5;       "/>
    <path d="M1873.8,25.1h12.7a6.7,6.7,0,0,1,6.7,6.7V58.6a6.7,6.7,0,0,1-6.7,6.7,6.786,6.786,0,0,1-6.1-3.8l-12.7-26.8a6.637,6.637,0,0,1,3.2-8.9A6.19,6.19,0,0,1,1873.8,25.1Z" style="         fill: #eeeff5;       "/>
  </g>

            </g>
        </g>
    </g>
    
    <!-- ITEM 2 -->
    <g>
        <defs>
            <clipPath id="clip-path-id-viewbox-item-2">
                <rect x="0.0" y="0.0" width="426.0" height="267.5"/>
            </clipPath>
        </defs>
        <g transform="translate(499.0 276.0) rotate(0.0 155.5 97.5) scale(0.7300469483568075 0.7289719626168224)">
            <g clip-path="url(#clip-path-id-viewbox-item-2)" transform="translate(-0.0 -0.0)">
                
  
  <g>
    <rect x="107.2" width="318.8" height="267.5" style="         fill: #68cc82;       "/>
    <rect x="0.1" width="216.1" height="267.5" style="         fill: #34ab53;       "/>
    <path d="M.1,0H76.7V72.4A76.649,76.649,0,0,1,0,149.1H0V0Z" style="         fill: #68cc82;       "/>
    <circle cx="128.9" cy="192.7" r="43.6" transform="translate(-66.153 318.011) rotate(-88.939)" style="         fill: #68cc82;       "/>
    <rect x="331.5" y="222" width="68.2" height="19.9" style="         fill: #34ab53;       "/>
    <rect x="342.7" y="134.7" width="10.2" height="77.5" style="         fill: #34ab53;       "/>
    <polygon points="347.8 118.4 368.3 151.1 327.2 151.1 347.8 118.4" style="         fill: #34ab53;       "/>
    <rect x="378.4" y="134.7" width="10.2" height="77.5" style="         fill: #34ab53;       "/>
    <polygon points="383.5 118.4 404 151.1 363 151.1 383.5 118.4" style="         fill: #34ab53;       "/>
  </g>

            </g>
        </g>
    </g>
    
    <!-- ITEM 3 -->
    <g>
        <defs>
            <clipPath id="clip-path-id-viewbox-item-3">
                <rect x="0.0" y="0.0" width="932.211" height="1347.985"/>
            </clipPath>
        </defs>
        <g transform="translate(687.0 354.0) rotate(0.0 -246.5 356.5) scale(-0.5288502281135923 0.5289376365464008)">
            <g clip-path="url(#clip-path-id-viewbox-item-3)" transform="translate(-0.0 -0.0)">
                
  <defs>
    
    <linearGradient id="linear-gradient-i3" x1="332.479" y1="-1382.727" x2="391.461" y2="-1382.727" gradientTransform="translate(0 1594)" gradientUnits="userSpaceOnUse">
      <stop offset="0" stop-color="#ff953f"/>
      <stop offset="0.18" stop-color="#fcaf3c"/>
      <stop offset="0.37" stop-color="#fbc13b"/>
      <stop offset="0.56" stop-color="#f9cc39"/>
      <stop offset="0.77" stop-color="#f9d039"/>
    </linearGradient>
    <linearGradient id="linear-gradient-2-i3" x1="570.3" y1="-1415.127" x2="635.3" y2="-1415.127" xlink:href="#linear-gradient-i3"/>
    <linearGradient id="linear-gradient-3-i3" x1="540.723" y1="-1482.722" x2="645.9" y2="-1482.722" xlink:href="#linear-gradient-i3"/>
    <linearGradient id="linear-gradient-4-i3" x1="0" y1="-1331.85" x2="174.7" y2="-1331.85" xlink:href="#linear-gradient-i3"/>
    <linearGradient id="linear-gradient-5-i3" x1="485.318" y1="-1041.211" x2="429.189" y2="-1388.851" gradientTransform="translate(0 1594)" gradientUnits="userSpaceOnUse">
      <stop offset="0" stop-color="#0075be"/>
      <stop offset="0.21" stop-color="#1089cb"/>
      <stop offset="0.42" stop-color="#1a97d4"/>
      <stop offset="0.61" stop-color="#1e9cd7"/>
      <stop offset="0.66" stop-color="#279fd8"/>
      <stop offset="0.73" stop-color="#3ea9dc"/>
      <stop offset="0.81" stop-color="#65b8e3"/>
      <stop offset="0.91" stop-color="#9accec"/>
      <stop offset="1" stop-color="#cce0f4"/>
    </linearGradient>
  </defs>
  <g>
    <path d="M817,1290.373h0c0,6.7,1.9,11.9,8.5,11.6,4.8-.2,10.6-4.6,18.1-4.6,9.2,0,9.5,2.2,23,4.6,8.1,1.5,14.3-8,20.9-11.6,6.9-3.8,13.8,1.5,19.1-17.5,3-10.8,12.7-9.4,15.8-16.3,2.8-6.2-2.3-11.4,4.3-19.2,13.3-15.6-1.9-28,0-26l-42,65.7Z" style="         fill: #211c1b;       "/>
    <path d="M391.4,262.273s-23-23.5-22.7-26.9c.3-3.3,9-74.3,9-74.3s-5.7-3.3-9,4.7l-7-36s-8-1.7-9.3,11l-7.7-16s-7.7,4.3-5.3,17.3,13.8,42.1,13.8,42.1l-11.5-11.5s-8.7,8.4-.3,18.4,10.5,19.1,5.7,25.2c-4.2,5.4-23.2,18.6-10.2,42.8,9,16.7,28.5,38.7,28.5,38.7Z" style="         fill: url(#linear-gradient-i3);       "/>
    <path d="M828.8,1075.073l.2-.3c-2.9-5.6-5.9-11.4-9.2-17.4-39-72-105-97-127-125s6.2-141,27-240c16-76.1.6-101.6-19.7-164.3-7.5-23.4-97.2-39.1-97.2-39.1s-73.4,219.8-72.1,295.8,24.8,184,79.3,234c40.9,37.5,112.3,88.4,171.2,137.9C797.4,1129.673,813.1,1102.273,828.8,1075.073Z" style="         fill: #34ab53;       "/>
    <path d="M635.3,635.973l-66.5-36.2c-19,66.3-38.7,145.2-38,184.9,1.2,69.2,20.8,165,65.5,219.3-26.3-35.3,4.7-76-12.6-102.7s-8.9-64.7,26.4-130.7S635.3,635.973,635.3,635.973Z" style="         fill: #211c1b;       "/>
    <polygon points="574.3 150.873 570.3 223.873 635.3 229.373 628.8 128.373 574.3 150.873" style="         fill: url(#linear-gradient-2-i3);       "/>
    <polygon points="602.8 153.573 572.7 178.873 574.3 150.873 602.8 153.573" style="         fill: #211c1b;       "/>
    <polygon points="632.8 190.373 572.4 184.673 570.3 223.873 635.3 229.373 632.8 190.373" style="         fill: #7d5252;       "/>
    <path d="M437.4,510.073s-72.7,61.3-53.7,268.3,163.5,492,154,518c-5.4,14.9-22,6-43,12s-17,28-17,28H585.4a7.6,7.6,0,0,0,7.6-7.6,6.6,6.6,0,0,0-.1-1.4c-3.7-20.3-11.2-71.5-4.2-119,9-61,16-105-16-176s-29-181,27-275,50-231,29.5-256.5S479.1,483.673,437.4,510.073Z" style="         fill: #34ab53;       "/>
    <path d="M503,1187.973l14.1-8.4s-96.4-257.4-113.1-411.9,34.7-220.5,34.7-220.5l-30.4,7.8c-17.7,39.8-35,109.5-24.5,223.4C396.1,912.773,461.3,1079.973,503,1187.973Z" style="         fill: #68cc82;       "/>
    <path d="M567.8,73.873s-32.8,25-26.2,39c5.3,11.4,22.8,11,22.8,11s-15.5,29.5,1,39,64.5-21.5,64.5-21.5l16-56.5-58.2-27Z" style="         fill: url(#linear-gradient-3-i3);       "/>
    <path d="M563.3,48.373s-27,3-21.8,20,37.6,16,50.2-10.5Z" style="         fill: #211c1b;       "/>
    <path d="M606.9,67.673s11.5,8.3,7,22.7c-2.9,9.2-.2,10.3,2.1,9.9a5.946,5.946,0,0,0,3.3-2c2.3-2.8,9-10,16-8.6,8.6,1.8,10.2,22-14.2,31.3,0,0-3.2,34.7,19,31,11.4-1.9,5.7-16.7,5.7-16.7s21.5,1.8,24.7-16.3c2.5-14.2-8.7-18.7-8.7-18.7s6.3-5.7,2.7-12.7-18.7-2.8-18.7-2.8Z" style="         fill: #211c1b;       "/>
    <path d="M104.3,219.373c-3.2.7-5.8,1.2-7.9,1.7a14.789,14.789,0,0,1-13.9-4.4c-5.5-5.8-14.8-12.9-26.2-9.8,0,0-7.2-9-18-4,0,0-9.5-6.5-17.5.2,0,0-12.5-10.8-20.8-.8,0,0,22.2,20.8,37.5,27.2s63.8,24.8,72.2,40.8,27,56,27,56l38-32C141.3,228.373,125.8,214.873,104.3,219.373Z" style="         fill: url(#linear-gradient-4-i3);       "/>
    <path d="M391.4,262.273s-27.3,2.5-54,51.5l22,29.7s49.3-63.7,48.7-65C407.5,277.073,391.4,262.273,391.4,262.273Z" style="         fill: #7d5252;       "/>
    <path d="M771.4,306.073c-8.7-40.7-34.7-78.7-76.7-86.7a142.8,142.8,0,0,0-45-1.8,144.628,144.628,0,0,1-57.8-4c-25.1-6.9-59.5-13.6-103.6-4.2-73,15.5-151.5,126-195,218,0,0-85-67-118.5-133,0,0-21,6.3-38,32,0,0-11.5,13.5-15,36.5,0,0,51,163.5,171,189.5,74.4,16.1,127.3-13.5,159.9-46.3,159.7-38.9,247.5,21.9,247.5,21.9,94-12,88.7-67.3,82.7-87.3s5-42.2,5.6-64.2S780.1,346.673,771.4,306.073Z" style="         fill: url(#linear-gradient-5-i3);       "/>
    <path d="M293.3,427.373l-14.5,29s-8.8-43.9-30.7-69.3Z" style="         fill: #211c1b;       "/>
    <path d="M617.8,331.373l42,5s15.5,43.3,67.5,74.3c0,0-16.9,91-27.2,117.3l-247.5-21.9s58.2-57.2,72.1-133.8C524.8,372.273,573.8,390.373,617.8,331.373Z" style="         fill: #34ab53;       "/>
    <path d="M727.3,410.673s-25.6,83.6-54.5,99.5c-19.3,10.6-35.7-5.1-49.3,2.8-9.7,5.7-8.4,20.5,6.8,21.4,53.5,3.3,76.6,4.3,93.7,70.6l-23.9-77,23.9-42.6Z" style="         fill: #2b9962;       "/>
    <path d="M524.8,372.273s18.5,32.6,7.4,53.8c-17.1,32.7-34.9,30.2-55.4,92.2-14.9,45.2-67.8,30.8-87.4,97.9,0,0,7.6-31.1,13.4-47.8s17.6-36.3,17.6-36.3C505.4,475.873,524.8,372.273,524.8,372.273Z" style="         fill: #211c1b;       "/>
    <path d="M510.8,205.773s94,46.1,107,125.6l42,5s-5.2-79.2-109.6-130.7c-1.2-.6-10.6-1-19.3-.9C520.6,204.973,510.8,205.773,510.8,205.773Z" style="         fill: #2b9962;       "/>
    <path d="M642.7,218.273c2.3,13.3,6.4,51.7-13.4,82.5l30.5,35.5s31.7-53.7,15.5-119.5C660.7,215.673,650.6,217.673,642.7,218.273Z" style="         fill: #2b9962;       "/>
    <path d="M174.8,294.373s-21,6.3-38,32c0,0-11.5,13.5-15,36.5,0,0,10,32,31.5,69.9,11.4-55.5,44.1-79.5,56.6-86.8C196.2,329.573,183.7,311.873,174.8,294.373Z" style="         fill: #7d5252;       "/>
    <path d="M563.3,48.373s38.9-59.2,78-46.5c37.8,12.2,4.5,83,4.5,83Z" style="         fill: #ff953f;       "/>
    <path d="M563.3,48.373l-21.8-10.2h0a5.579,5.579,0,0,1,6.3-3l25.2,6.1Z" style="         fill: #ff953f;       "/>
    <path d="M594.8,1336.373s-15-67-6-128c4.1-27.5,7.7-51.6,7.6-76.2l-93.3,55.8c22.5,58.3,38.1,99.3,34.8,108.4-5.4,14.9-22,6-43,12s-17,28-17,28Z" style="         fill: #7d5252;       "/>
    <path d="M897.8,1192.373c-28.8-21.1-37.9-58.8-72-123.7l-58.6,76.2c39.1,32,74.4,64,94.3,91.8,4.7,6.6,4,28.7-14.7,28.7-27.5,0-30,25-30,25h50.3a34.376,34.376,0,0,0,31.1-19.6l28.6-59.4C926.6,1211.273,915.9,1205.673,897.8,1192.373Z" style="         fill: #7d5252;       "/>
    <path d="M688.1,960.673c42.2,3.1,68.9,23.3,69,23.4-26.9-21.9-52.3-36.4-64.3-51.8-15.3-19.5-6.4-80,7.4-148.3,0,0-15.4,61.9-32.8,105.6S645.8,957.573,688.1,960.673Z" style="         fill: #2b9962;       "/>
    <path d="M559.4,98.873s13.5-26.3,41.8-8.1C601.2,90.773,584.1,118.273,559.4,98.873Z" style="         fill: #fff;       "/>
    <path d="M565.4,75.073a49.42,49.42,0,0,0-2.6,5.7,1.4,1.4,0,0,0,.8,1.8,1.7,1.7,0,0,0,1,0c6.1-2.8,21.1-8.1,34.8-2.1a1.354,1.354,0,0,0,1.6-.3h0a1.422,1.422,0,0,0-.1-2h-.1c-3.2-2.7-12.4-10.2-31.3-6.2A6.3,6.3,0,0,0,565.4,75.073Z" style="         fill: #211c1b;       "/>
    <path d="M576.8,85.073c-11.7,2.8-17.4,13.9-17.4,13.9,7.8,6.1,14.9,7.6,20.8,6.7a16.068,16.068,0,0,0-3.4-20.6Z" style="         fill: #211c1b;       "/>
    <path d="M570.3,131.773l15.5-9.2s4,15-6.2,17.5C574.4,141.273,570.3,131.773,570.3,131.773Z" style="         fill: #fff;       "/>
    <path d="M727.3,410.673s-41.4,80.3-27.2,117.3c0,0,35.6-4.2,50.8-14.4,0,0-21.7-15-13.4-57.2C744.6,419.873,727.3,410.673,727.3,410.673Z" style="         fill: #211c1b;       "/>
    <path d="M477.8,1336.373h0c0,6.7,1.9,11.9,8.5,11.6,4.8-.2,14.7-4.6,22.2-4.6,9.2,0,11.2,4.6,24.8,4.6,13.2,0,20.6-4.6,27.8-4.6s15.4,4.4,21.5,4.6c15,.4,12.2-11.6,12.2-11.6Z" style="         fill: #211c1b;       "/>
    <ellipse cx="141.4" cy="375.273" rx="6.7" ry="11.7" style="         fill: #ad8172;       "/>
    <path d="M563.4,1007.173c-21.3-70.2-13.4-166.3,36.4-249.8,3.7-6.2,7.1-12.5,10.2-19,0,0-30.1,59.7-56.3,97.3s-48.7,53.1-41.5,86.3C517.1,944.273,533.7,944.273,563.4,1007.173Z" style="         fill: #2b9962;       "/>
    <path d="M624.6,60.073l26.8-52.2a24.952,24.952,0,0,0-10.1-6.1,37.128,37.128,0,0,0-14.8-1.6L598,48.273Z" style="         fill: #ffb578;       "/>
    <path d="M585.9,1248.173c-.5,16.1-12.6,23.1-12.8,35.8-.3,12.5,14.9,17.6,19.4,40.5A443.345,443.345,0,0,1,585.9,1248.173Z" style="         fill: #211c1b;       "/>
    <path d="M897.8,1192.373c-17.1-12.5-27.2-30.8-39.7-57.2h0s6.9,15.1,10.4,37.8c3.2,21,6.3,24,18,25.3s21.2,1.3,28.3,5.7C910.2,1201.173,904.4,1197.273,897.8,1192.373Z" style="         fill: #211c1b;       "/>
    <path d="M879.1,1248.773a12.6,12.6,0,0,0-5.8-13.1c-3.2-2-7.4-3.4-15.5-7.8-3.7-2-8.4-6.7-11.6-10.1a212.959,212.959,0,0,1,15.2,18.9c4.3,6,4.1,24.9-10.2,28.2h0C873.4,1263.773,877.8,1254.473,879.1,1248.773Z" style="         fill: #211c1b;       "/>
    <path d="M517.1,1179.473l-14.1,8.4c10.5,27.2,19.5,50.7,25.8,68.9,0,.2,1.2,3.9,3.2,9.5l-.5-1.7.6,1.7v-.1l.4,1.3.3.9c.2.8.5,1.6.7,2.3l.3,1c.2.7.4,1.4.6,2l.3,1.1c.2.6.3,1.2.5,1.8l.3,1.1a10.462,10.462,0,0,1,.4,1.7l.3,1a8.331,8.331,0,0,0,.4,1.5l.2,1c.1.5.2.9.3,1.4.1.3.1.7.2,1a4.3,4.3,0,0,1,.2,1.2,2.388,2.388,0,0,0,.2.9c.1.3.1.8.2,1.1a2.485,2.485,0,0,1,.1.8c0,.2.1.7.1,1s.1.5.1.7a3.085,3.085,0,0,0,.1.9c.1.3,0,.4,0,.6v1.3c0,.1-.1.5-.1.8s0,.3-.1.4a3.81,3.81,0,0,1-.3,1c-.2.4-.3.9-.5,1.3l-.1.3c-.2.3-.3.7-.5,1l-.1.2a14.29,14.29,0,0,1-1.4,2h0c-5.4,6.1-15.2,4.2-27.5,5.1,12.6.2,19.4,2.6,29.4,4.3,5.9,1,10.3-1.6,11.7-4.3,1.9-3.5,2-10.3,1-17.7C545.1,1254.273,517.1,1179.473,517.1,1179.473Zm11.7,77.4c.9,2.6,1.7,5,2.5,7.4-.8-2.4-1.6-4.9-2.5-7.4Z" style="         fill: #ad8172;       "/>
  </g>

            </g>
        </g>
    </g>
    
    <!-- ITEM 4 -->
    <g>
        <defs>
            <clipPath id="clip-path-id-viewbox-item-4">
                <rect x="0.0" y="0.0" width="598.603" height="1091.54"/>
            </clipPath>
        </defs>
        <g transform="translate(762.0 266.0) rotate(0.0 218.0 398.5) scale(0.7283625374413426 0.730161056855452)">
            <g clip-path="url(#clip-path-id-viewbox-item-4)" transform="translate(-0.0 -0.0)">
                
  <defs>
    
    <linearGradient id="linear-gradient-i4" x1="363.003" y1="-2605.833" x2="446.655" y2="-2605.833" gradientTransform="translate(0 2748.333)" gradientUnits="userSpaceOnUse">
      <stop offset="0" stop-color="#ff953f"/>
      <stop offset="0.18" stop-color="#fcaf3c"/>
      <stop offset="0.37" stop-color="#fbc13b"/>
      <stop offset="0.56" stop-color="#f9cc39"/>
      <stop offset="0.77" stop-color="#f9d039"/>
    </linearGradient>
    <linearGradient id="linear-gradient-2-i4" x1="504.455" y1="-2326.134" x2="598.603" y2="-2326.134" xlink:href="#linear-gradient-i4"/>
    <linearGradient id="linear-gradient-3-i4" x1="0" y1="-2571.984" x2="286.098" y2="-2571.984" xlink:href="#linear-gradient-i4"/>
    <linearGradient id="linear-gradient-4-i4" x1="280.905" y1="-1705.984" x2="330.804" y2="-1705.984" xlink:href="#linear-gradient-i4"/>
    <linearGradient id="linear-gradient-5-i4" x1="501.655" y1="-1710.214" x2="576.155" y2="-1710.214" xlink:href="#linear-gradient-i4"/>
  </defs>
  <g>
    <path d="M420.555,126l26.1,83.2-64.9-4.8,7.1-56.2s-19.4,6.7-22.6-5.9,3.6-23.8,2.4-27.3-3.6-2-5.5-6.3,14.7-32.9,14.7-32.9l33.7,11.9Z" style="         fill: url(#linear-gradient-i4);       "/>
    <polygon points="386.255 168.7 381.755 204.4 446.655 209.1 430.955 159.2 386.255 168.7" style="         fill: #211c1b;       "/>
    <path d="M378.155,111.1c3.4-.4,8.1-3.3,10-9.8,2.8-9.2,13.6-9.6,14.1-.2.4,7.8-9.7,12.5-8.5,25.9s23.8,9.9,28.2,3.9c0,0-5.3-19.1-1.9-28.6s12.7-32.8,3.3-42c-7.1-6.9-19.6-5.9-20.7,2.6a43.019,43.019,0,0,0-28.9-18.4c-25.9-3.9-36.2,15-28.7,24.7,7.5,9.8,30.9,6.4,31.7,20.4C377.355,100.7,378.155,111.1,378.155,111.1Z" style="         fill: #211c1b;       "/>
    <path d="M517.955,224.4c-80.5-45.9-162.4-21.8-245.9-22.3l-23.2,150.7c52.2,17.1,90.9,18,90.9,18l-9,74.4,173.8-.8,19.4,39.6C629.655,438.8,618.955,282,517.955,224.4Z" style="         fill: #0075be;       "/>
    <path d="M526.755,384.1s54,3.5,71.7-23.7c0,0,4.1,54-30.8,92.1-23.4,25.4-43.8,31.5-43.8,31.5l-19.4-39.6Z" style="         fill: url(#linear-gradient-2-i4);       "/>
    <path d="M567.655,452.5c-10.9,5.3-26.7,10-40.3,2.2-23.5-13.6,4.4-85.7,14.7-112.8s2.4-60.4-10.7-57.6-5.9,20.2-.8,47.5-11.5,53.2-21.4,77.4-4.8,35.2-4.8,35.2l19.4,39.6A119.943,119.943,0,0,0,567.655,452.5Z" style="         fill: #211c1b;       "/>
    <path d="M248.855,352.7c-45.9-15-102.2-42.7-151.9-93.3-56.6-57.6-61.3-182.6-61.3-182.6l-33.6-24a4.869,4.869,0,0,1-1.6-6h0l22.3,7.8L5.055,28.1a6.246,6.246,0,0,1,.9-8l1.3-1.2a6.277,6.277,0,0,1,8.4-.1l19.5,17.7L23.355,7.6a6.661,6.661,0,0,1,1.8-7.6h0l18.6,34.8s5.5-17.4,8.5-19.8,5.3,1.2,5.3,1.2l-6.9,30.3,12.3,32.1s65,98.1,144.9,116.4c21.5,4.9,42.9,6.7,64.2,6.8,0,0,20.6,24.9,11.9,86.5C277.955,330.4,248.855,352.7,248.855,352.7Z" style="         fill: url(#linear-gradient-3-i4);       "/>
    <path d="M339.755,370.7s35-.2,37.4,7.9c1.7,5.9-5.8,11.1-12.9,13.1-17.8,5-31.8,25.3-33.6,53.5Z" style="         fill: #211c1b;       "/>
    <path d="M504.455,444.4s49.7,62.8,29.5,125.7-65.9,139.6-54,177.6,55.4,53.5,58.9,102.8,2.6,120.6,2.5,134.2c-.2,44.3,32.5,53.4,34.8,101.2a5.383,5.383,0,0,1-5.1,5.7,5.175,5.175,0,0,1-4.2-1.7c-9.8-10.4-65.2-84.7-65.2-84.7s-89.1-143.4-110.4-225.8c-38.2-147.1-12.9-160.6-6.9-230.1s64.2-104.7,64.2-104.7Z" style="         fill: #7d5252;       "/>
    <path d="M449.655,594.5c.7-22.4-52.6,32.9-78.6,42.8-1.9,28.5,1.1,65.6,17.1,129.9C373.255,691.5,447.455,665.3,449.655,594.5Z" style="         fill: #211c1b;       "/>
    <path d="M448.455,444.6l-117.7.5s-91,127.5-89.2,277.2c1.1,96,39.4,277.7,39.4,277.7,9.3-2,27.2,0,39.5-6.1,5.4-35.7,20.8-153.6,20.5-186.5-.4-36.8-31.7-68.1-8.7-102.6s93.7-42.8,128.1-134.2S448.455,444.6,448.455,444.6Z" style="         fill: #7d5252;       "/>
    <path d="M332.255,705c8.3-12.5,22.9-21.5,39.7-32.3-3.5.8-24.8,7.1-28,8-35,9.5-45.2,38-33.9,54.7s30.3,42.4,30.9,72.3C340.555,770.7,309.255,739.4,332.255,705Z" style="         fill: #211c1b;       "/>
    <path d="M475.455,765c12.2,10.6,23.8,18.3,34,26.4-11.9-13.4-24-26.2-29.5-43.6-7.1-22.8,6.5-59.5,22.9-98.8-9.2,13.3-23.4,33.4-33,44.8C448.455,719.2,450.755,743.6,475.455,765Z" style="         fill: #211c1b;       "/>
    <path d="M330.755,1040.7c-1.3-11.9-17.1-15-15.2-27.3.5-3.1,2.3-10.1,4.8-19.4l-39.5,6.1c10.9,46.4,20.3,75.9,16.8,77.9-3.1,1.8-6.7,3.8-10.2,5.5a3.8,3.8,0,0,0-1.7,5.1,3.667,3.667,0,0,0,3.4,2.1h16.5a13.312,13.312,0,0,0,12.2-8.1C323.055,1070.8,331.655,1049.2,330.755,1040.7Z" style="         fill: url(#linear-gradient-4-i4);       "/>
    <path d="M291.955,998.4s10,45.8,1.7,53.2c0,0-11.8-46.8-12.8-51.5Z" style="         fill: #fff194;       "/>
    <path d="M550.455,1010.3c-6.3-3.7-8.2-11.6-9.1-25.6l-39.7,20.5c29.1,44.3,52.7,71.4,65.2,84.7a5.464,5.464,0,0,0,7.6.2,5.9,5.9,0,0,0,1.7-4.2C573.755,1038.1,569.655,1021.6,550.455,1010.3Z" style="         fill: url(#linear-gradient-5-i4);       "/>
    <path d="M550.455,1010.3a13.676,13.676,0,0,1-2.4-1.8c-3.2,9.9-4.6,27.2,10.3,48.3,0,0-10.9-3-15.1,5.8,9.8,12.2,17.9,21.2,23.6,27.3a5.464,5.464,0,0,0,7.6.2,5.9,5.9,0,0,0,1.7-4.2C573.755,1038.1,569.655,1021.6,550.455,1010.3Z" style="         fill: #211c1b;       "/>
    <path d="M305.855,1057.8c-4-6-8.7-6.8-12.2-6.2,4,15.9,5.9,25.3,4.1,26.4-3.1,1.8-6.7,3.8-10.2,5.5a3.8,3.8,0,0,0-1.7,5.1,3.667,3.667,0,0,0,3.4,2.1h16.5a13.312,13.312,0,0,0,12.2-8.1c5.1-11.8,13.7-33.4,12.8-41.8-1-9.2-10.7-13.2-14.1-20.2l-.5-1.1C305.055,1031.8,305.855,1057.8,305.855,1057.8Z" style="         fill: #211c1b;       "/>
    <path d="M291.955,998.4s-47.8-229.1-31.8-336.5,86.6-216.8,86.6-216.8h-16.1s-91,127.5-89.2,277.2c1.1,96,39.4,277.7,39.4,277.7a30.722,30.722,0,0,1,3.4-.5Z" style="         fill: #ad8172;       "/>
  </g>

            </g>
        </g>
    </g>
    
    <!-- ITEM 5 -->
    <g>
        <defs>
            <clipPath id="clip-path-id-viewbox-item-5">
                <rect x="0.0" y="0.0" width="313.1" height="470.396"/>
            </clipPath>
        </defs>
        <g transform="translate(655.0 55.0) rotate(0.0 74.0 111.0) scale(0.4726924305333759 0.471942788629155)">
            <g clip-path="url(#clip-path-id-viewbox-item-5)" transform="translate(-0.0 -0.0)">
                
  
  <g>
    <rect x="149.9" y="40.796" width="13.3" height="313.5" style="         fill: #2b9962;       "/>
    <path d="M261.1,332.8c-43.5,31.7-105.6,20.7-105.6,20.7s8.5-62.4,52-94.2,105.6-20.7,105.6-20.7S304.6,301,261.1,332.8Z" style="         fill: #34ab53;       "/>
    <path d="M52,332.8c43.5,31.7,105.6,20.7,105.6,20.7s-8.5-62.4-52-94.2S0,238.6,0,238.6,8.5,301,52,332.8Z" style="         fill: #34ab53;       "/>
    <path d="M229.2,207.8c-30.2,22-73.3,14.4-73.3,14.4s5.9-43.4,36.1-65.4,73.3-14.4,73.3-14.4S259.4,185.8,229.2,207.8Z" style="         fill: #34ab53;       "/>
    <path d="M83.9,207.8c30.2,22,73.3,14.4,73.3,14.4s-5.9-43.4-36.1-65.4-73.3-14.4-73.3-14.4S53.7,185.8,83.9,207.8Z" style="         fill: #34ab53;       "/>
    <path d="M212.2,113.8c-23.2,16.9-56.2,11-56.2,11s4.5-33.2,27.7-50.1,56.2-11,56.2-11S235.4,96.9,212.2,113.8Z" style="         fill: #34ab53;       "/>
    <path d="M100.9,113.8c23.2,16.9,56.2,11,56.2,11s-4.5-33.2-27.7-50.1-56.2-11-56.2-11S77.7,96.9,100.9,113.8Z" style="         fill: #34ab53;       "/>
    <path d="M195.1,35.4c-16,11.7-38.9,7.6-38.9,7.6s3.1-23,19.2-34.7C191.4-3.4,214.3.7,214.3.7S211.1,23.8,195.1,35.4Z" style="         fill: #34ab53;       "/>
    <path d="M118,35.4c16,11.7,38.9,7.6,38.9,7.6s-3.1-23-19.2-34.7S98.8.7,98.8.7,101.9,23.8,118,35.4Z" style="         fill: #34ab53;       "/>
    <rect x="58.7" y="388.596" width="193.7" height="81.8" style="         fill: #dcdde2;       "/>
    <rect x="58.7" y="347.696" width="193.7" height="46.7" style="         fill: #c0c0d1;       "/>
  </g>

            </g>
        </g>
    </g>
    
    <!-- ITEM 6 -->
    <g>
        <defs>
            <clipPath id="clip-path-id-viewbox-item-6">
                <rect x="0.0" y="0.0" width="603.163" height="1287.2"/>
            </clipPath>
        </defs>
        <g transform="translate(1229.0 660.0) rotate(0.0 95.0 203.5) scale(0.31500605972183304 0.3161901802361715)">
            <g clip-path="url(#clip-path-id-viewbox-item-6)" transform="translate(-0.0 -0.0)">
                
  
  <g>
    <path d="M209.77,496.1s-17.5-18.6-48.8-13.3-76.7,34.6-113.9,111c-74.3,152.3-38.4,340.3-38.4,340.3s71.2-12.4,85.6-73.7c23.7-100.5,62.8-103.7,80.1-139.5,19.2-38.2,13.7-67.4-2.3-159C163.47,512.6,184.571,490.9,209.77,496.1Z" style="         fill: #34ab53;       "/>
    <path d="M306.571,0s-1.5,24.2-35.5,70.4c-45.6,60.4-85.6,140.5-40.6,242.5s72,168.8,76.1,230.7c0,0,10.9-79.8,51-135.6,34.9-48.6,83-109,72-218S306.571,0,306.571,0Z" style="         fill: #34ab53;       "/>
    <path d="M573.07,252.9s-168,153-243,460c0,0,20-56,78-59s151.8-72.5,157.7-174.7C573.07,355.5,641.37,374.1,573.07,252.9Z" style="         fill: #34ab53;       "/>
    <path d="M307.071,929.2h-16v-234c0-90.2-27.8-141.8-51.2-169.2a82.553,82.553,0,0,0-58.4-28.8,79.167,79.167,0,0,0-59.5,22c-.6.5-1.1,1.1-1.7,1.7l-11.3-11.3,1.9-1.9a95.346,95.346,0,0,1,71.4-26.4,98.4,98.4,0,0,1,69.7,34.4c25.1,29.5,55,84.5,55,179.6Z" style="         fill: #34ab53;       "/>
    <path d="M307.071,826.2h-16c0-129.7,12.4-386.8,12.5-389.4l16,.8C319.47,440.2,307.071,696.9,307.071,826.2Z" style="         fill: #34ab53;       "/>
    <path d="M307.071,929.2h-16c0-42.1,5.9-113.3,33.8-212.9,16.7-59.5,33.6-101.7,33.8-102.1l14.8,6C372.871,621.9,307.071,786.5,307.071,929.2Z" style="         fill: #34ab53;       "/>
    <path d="M573.07,252.9c6.6,36.4,12,75.8-6,108-9.6,17-25.3,31-29.9,50.1-5.1,21.4,5.3,43.1,10.5,64.5,5.9,23.7,4.2,51.7-13.4,68.7-17.2,16.5-42.3,14.3-59.1,27.2-12.1,9.2-18.4,28-27.1,40.5-28.7,40.7-66.4,46.3-72.5,50.4a82.3,82.3,0,0,1,32.6-8.3c58-3,151.8-72.5,157.7-174.7,7.2-123.8,75.5-105.2,7.2-226.4Z" style="         fill: #2b9962;       "/>
    <path d="M291.571,339.2c2-.4,4-.3,6-.6,10.6-1.6,16.1-14.7,13.7-25.1s-10.2-18.7-17.4-26.6c-16.5-18-32.1-37.3-42.3-59.5s-14.6-47.8-8.1-71.3c7.8-28.3,29.7-50,46.3-74.3,15.1-22.2,25.8-51.7,15.7-75.7-2.5,9.9-10.2,31.6-34.3,64.3-45.6,60.4-85.6,140.5-40.6,242.5,33.1,75.1,56.5,131.1,68.1,180.2-18-69.2,2-84.4-11.9-115.6-3-6.8-6.5-13.7-6.6-21.1S284.27,340.7,291.571,339.2Z" style="         fill: #2b9962;       "/>
    <path d="M341.77,199.4c.3,27.8-4.9,58.1,9.9,81.7,7.7,12.2,20,21.1,27,33.7,4,7.2,5.5,17.6-1,22.8a15.362,15.362,0,0,1-8,3c-10.8,1.2-21.3-5-28.4-13.2s-11.7-18.2-16.9-27.8a223.12,223.12,0,0,0-29.9-42.3c-5.3-5.9-11-11.6-14-18.9-3.8-9.2-2.7-19.8-.3-29.5,3.8-15.8,14.5-39,32.1-43.2C332.071,161,341.67,183.6,341.77,199.4Z" style="         fill: #2b9962;       "/>
    <ellipse cx="379.093" cy="258.793" rx="19" ry="26.999" transform="translate(-59.644 123.904) rotate(-17.23)" style="         fill: #2b9962;       "/>
    <path d="M37.47,916.5c-6.6,5.8-13.9,10.8-21.2,15.9,18.7-5.1,66.5-22.9,78-71.9,23.7-100.5,62.8-103.7,80.1-139.5,19.2-38.2,13.7-67.4-2.3-159-5.4-30.6.8-50.6,12.2-60.1a10.834,10.834,0,0,0-4.4.1c-14.8,3.6-26.3,24.9-30.4,37.9-6.2,19.6-5,40.7-3.4,61.2s3.6,41.4-1.1,61.5c-5.8,25-21.7,46.6-40,64.6-18.4,18-39.4,32.9-58.9,49.6-8.9,7.6-17.7,16-21.6,27s-1.1,25.2,9.1,30.9c6,3.3,13.3,3.1,20.1,4.1s14.3,4,16.6,10.4c1.3,3.6.7,7.5-.1,11.2A104.749,104.749,0,0,1,37.47,916.5Z" style="         fill: #2b9962;       "/>
    <path d="M382.27,586.5c5.5-6,9.3-13.3,13.9-20a97.494,97.494,0,0,1,53.4-38.2c20.7-5.8,43.5-4.7,62.4-14.9,5.1-2.8,10.1-6.6,12-12.1,3.9-11.2-7.2-22.8-18.8-25.1-16.4-3.2-32.4,5.5-48.8,3.1-14.3-2.1-20.7-12.3-30.2-21.3a1073.7,1073.7,0,0,0-60.8,138.1C371.67,595.4,377.77,591.4,382.27,586.5Z" style="         fill: #2b9962;       "/>
    <path d="M123.371,665.4c5.9-11.1,8-27.3-2.5-34.1-6.7-4.3-15.9-2.5-22.7,1.8s-12,10.6-18,15.8c-10,8.7-24.6,15.6-38.1,11.8-4.8-1.3-11-7.3-17.2-11.2-14.7,46.3-21.4,93.3-23.8,135.4a192.26,192.26,0,0,1,11.1-17.1C42.67,727.2,99.67,710.3,123.371,665.4Z" style="         fill: #2b9962;       "/>
    <ellipse cx="476.574" cy="435.897" rx="21.5" ry="17.5" transform="translate(-29.035 34.041) rotate(-3.97)" style="         fill: #2b9962;       "/>
    <ellipse cx="58.362" cy="632.357" rx="16.6" ry="13.5" transform="translate(-304.711 111.339) rotate(-29.598)" style="         fill: #2b9962;       "/>
  </g>
  <g>
    <polygon points="404.871 1287.2 197.871 1287.2 124.871 897.2 477.871 897.2 404.871 1287.2" style="         fill: #dcdde2;       "/>
    <polygon points="459.17 997.2 477.871 897.2 124.871 897.2 143.571 997.2 459.17 997.2" style="         fill: #c0c0d1;       "/>
  </g>

            </g>
        </g>
    </g>
    
</svg>